<svg width="243" height="71" viewBox="0 0 243 71" fill="none" xmlns="http://www.w3.org/2000/svg">
<rect width="243" height="71" fill="#1E1E1E"/>
<path d="M70.5456 19.2089H21.956C20.9337 19.2089 20.0759 19.9799 19.9673 20.9965L18.103 38.4537C17.9746 39.6552 18.9329 40.6952 20.1408 40.6655L67.2341 39.5074C68.1643 39.4845 68.9558 38.8232 69.1437 37.9119L72.5044 21.6127C72.7602 20.3719 71.8125 19.2089 70.5456 19.2089Z" fill="#D36135" stroke="#D36135" stroke-width="6" stroke-linecap="round"/>
<circle cx="53.1582" cy="55.3418" r="4" stroke="#D36135" stroke-width="2.44304"/>
<circle cx="53.1582" cy="55.3418" r="4" stroke="#D36135" stroke-width="2.44304"/>
<circle cx="53.1582" cy="55.3418" r="4" stroke="#D36135" stroke-width="2.44304"/>
<circle cx="24.7532" cy="55.3418" r="4" stroke="#D36135" stroke-width="2.44304"/>
<circle cx="24.7532" cy="55.3418" r="4" stroke="#D36135" stroke-width="2.44304"/>
<circle cx="24.7532" cy="55.3418" r="4" stroke="#D36135" stroke-width="2.44304"/>
<path d="M7 10.4367H18.4198C19.6571 10.4367 20.5975 11.5488 20.392 12.7689L14.4941 47.7881C14.2886 49.0082 15.229 50.1203 16.4663 50.1203H62.9747" stroke="#D36135" stroke-width="4" stroke-linecap="round"/>
<path fill-rule="evenodd" clip-rule="evenodd" d="M43.96 19.8382C44.2118 19.8382 44.5217 19.9515 44.6573 20.0761C44.8898 20.2913 44.9092 20.2913 44.793 20.0195C44.7542 19.8609 45.2191 20.3479 45.8584 21.0955C46.4977 21.8431 47.3307 22.9645 47.7181 23.5875C48.0862 24.2105 48.6286 25.2526 48.8805 25.9096C49.1711 26.6232 49.4229 27.6767 49.636 29.9648L51.9606 30.0327C53.5685 30.078 54.7309 30.0554 55.7382 29.9421C56.5325 29.8628 57.2492 29.8062 57.3267 29.8288C57.4236 29.8515 57.4817 29.8288 57.4817 29.7609C57.4817 29.7042 57.7142 29.6476 58.0047 29.6476C58.3147 29.6476 58.8377 29.6023 59.1671 29.5343C59.5933 29.4588 59.8063 29.4588 59.8063 29.5343C59.8063 29.6023 59.477 30.1687 59.0508 30.8143C58.644 31.4486 57.9466 32.4001 57.4817 32.9325C57.0361 33.4649 56.2613 34.2465 55.7576 34.6882C55.2733 35.1187 54.4209 35.753 53.8979 36.0815C53.3554 36.4213 52.5418 36.8631 52.0575 37.0783C51.5732 37.2822 50.6046 37.6333 49.8685 37.8485C49.1517 38.0751 48.493 38.2337 48.3768 38.1997C48.2606 38.1657 48.1831 38.1883 48.1831 38.2563C48.1831 38.3243 48.125 38.3469 48.0281 38.3243C47.9506 38.2903 47.6407 38.3469 47.3113 38.4375C46.982 38.5282 46.2846 38.6301 45.7616 38.6641C44.8511 38.7207 44.8123 38.7094 45.1804 38.5395C45.3935 38.4375 45.7034 38.3809 45.8584 38.4149C46.0134 38.4375 46.5171 38.4149 46.9626 38.3583C47.4276 38.3016 47.7956 38.2223 47.7956 38.177C47.7956 38.1204 47.9894 38.0751 48.2218 38.0637C48.4737 38.0524 48.6868 37.9845 48.7061 37.9165C48.7449 37.8599 48.9192 37.8372 49.0936 37.8825C49.3648 37.9505 49.4035 37.9391 49.2485 37.8032C49.1129 37.6786 49.1129 37.656 49.3067 37.7239C49.4229 37.7692 49.5585 37.7692 49.5779 37.7126C49.6166 37.6673 50.1978 37.4181 50.8952 37.1576C51.5926 36.897 52.6774 36.3647 53.3361 35.9682C53.9753 35.5718 54.9246 34.8808 55.4089 34.439C55.9126 33.9859 56.6487 33.2157 57.0749 32.7399C57.4817 32.2529 58.121 31.4147 58.4697 30.8709C58.8377 30.3272 59.1864 29.9081 59.2833 29.9421C59.3608 29.9648 59.4189 29.9308 59.4189 29.8741C59.4189 29.8175 59.3027 29.7382 59.1671 29.7156C59.0508 29.6929 58.7215 29.7382 58.4503 29.8175C58.1791 29.8968 57.3073 30.0441 56.5131 30.1573C55.2733 30.3386 54.5565 30.3499 51.5732 30.2933C49.6554 30.2479 47.5438 30.2593 46.8851 30.3046C46.2071 30.3499 45.6647 30.3725 45.6647 30.3612C45.6647 30.3386 45.994 30.2479 46.3815 30.1573C46.7883 30.0554 47.4857 29.9874 48.7642 29.9874L48.8805 29.3418C48.9386 28.9793 48.8805 28.2544 48.7642 27.722C48.648 27.1896 48.3962 26.3514 48.1831 25.853C47.9894 25.3546 47.5244 24.4597 47.1564 23.8707C46.7883 23.2817 45.994 22.1716 45.3935 21.4127C44.5024 20.2687 44.2699 20.0421 44.0568 20.1667C43.9018 20.2347 43.7856 20.3593 43.7856 20.4159C43.7856 20.4725 43.5725 20.8124 43.3013 21.1522C43.0301 21.492 42.6233 21.8998 42.3908 22.0584C41.9646 22.3302 41.9646 22.3415 42.0615 22.0923C42.139 21.9338 42.1002 21.8545 41.984 21.8884C41.8871 21.9224 41.829 21.8658 41.8871 21.7752C41.9453 21.6732 42.0809 21.6392 42.2165 21.6846C42.4102 21.7525 42.4102 21.7299 42.2939 21.6053C42.1777 21.4807 42.2358 21.39 42.4877 21.2881C42.6814 21.2088 42.817 21.1182 42.7589 21.0842C42.7008 21.0502 42.8557 20.7557 43.0882 20.4272C43.4369 19.9402 43.6113 19.8269 43.96 19.8382ZM41.6934 22.0584C41.7128 22.0584 41.7128 22.149 41.674 22.2622C41.6547 22.3642 41.6159 22.4661 41.6159 22.4888C41.5966 22.5001 41.4997 22.4888 41.4028 22.4548C41.2866 22.4208 41.2866 22.3415 41.4222 22.2283C41.5384 22.1376 41.6547 22.0584 41.6934 22.0584ZM43.8437 25.1167C43.8825 25.1167 43.3982 25.5132 42.7783 26.0002C42.1583 26.476 41.1897 27.3255 40.6473 27.8919C40.1049 28.4582 39.4075 29.2965 39.0975 29.7609C38.807 30.2253 38.4002 30.9729 38.2064 31.4033C38.0321 31.8338 37.7996 32.7513 37.7221 33.4422C37.5865 34.6882 37.5865 34.6882 37.5478 33.782C37.5284 33.2836 37.664 32.4454 37.8384 31.9131C38.0127 31.3807 38.3614 30.5651 38.6326 30.1007C38.9038 29.6363 39.33 29.002 39.6012 28.6848C39.8724 28.379 40.2405 28.0278 40.4149 27.9032C40.5892 27.7899 40.7248 27.6653 40.7054 27.62C40.6861 27.586 40.8992 27.3482 41.1704 27.099C41.4222 26.8498 42.1196 26.3061 42.7008 25.887C43.2819 25.4565 43.805 25.1167 43.8437 25.1167ZM35.2037 26.5893L34.642 27.0763C34.3514 27.3368 33.8283 27.8692 33.4796 28.2657C33.1503 28.6508 32.6466 29.4437 32.3754 30.0214C31.9492 30.8709 31.8717 31.2221 31.9492 31.9131C32.0073 32.4341 32.2204 32.9778 32.4917 33.329C32.7241 33.6461 32.9566 33.9973 33.0147 34.1219C33.0534 34.2465 33.1116 34.4164 33.1309 34.4957C33.1503 34.575 33.2859 34.6089 33.4021 34.575C33.5377 34.541 33.6346 34.5863 33.5959 34.6656C33.5765 34.7335 33.654 34.7902 33.7508 34.7788C33.8477 34.7675 33.9639 34.9034 33.9833 35.062C34.0027 35.3565 33.9833 35.3565 33.3247 34.9148C32.9566 34.6656 32.4142 34.1445 32.0848 33.7594C31.7749 33.3629 31.4262 32.7173 31.3293 32.3095C31.1937 31.8224 31.1937 31.3354 31.3293 30.8709C31.4262 30.4745 31.7168 29.7949 31.9686 29.3644C32.2204 28.934 32.7047 28.2544 33.0534 27.8692C33.3828 27.4728 33.8671 27.031 34.1383 26.8724C34.4095 26.7139 34.5645 26.5666 34.487 26.5326C34.3901 26.4986 34.5257 26.4986 35.2037 26.5893ZM42.4102 31.0295C42.662 31.0182 42.817 31.0182 42.7589 31.0409C42.7008 31.0635 42.3327 31.1881 41.9259 31.324C41.3447 31.5279 41.2091 31.5393 41.2091 31.4033C41.2091 31.3127 41.306 31.2561 41.4028 31.2901C41.4997 31.324 41.674 31.2787 41.7709 31.1994C41.8678 31.1201 42.1583 31.0409 42.4102 31.0295ZM40.9573 31.426C40.996 31.5053 40.6861 31.7885 40.2986 32.049C39.9112 32.3208 39.3881 32.7852 39.1363 33.1024C38.9038 33.4082 38.6132 33.918 38.5164 34.2351C38.3808 34.5976 38.3808 35.0394 38.497 35.4811C38.6132 35.8549 38.8845 36.3647 39.0975 36.6139C39.3106 36.8631 39.6981 37.1802 39.9112 37.3275C40.1436 37.4747 40.6667 37.7013 41.0735 37.8372C41.4609 37.9731 41.7903 38.1091 41.7903 38.143C41.7903 38.177 41.9065 38.1997 42.0227 38.211C42.1583 38.2223 42.7783 38.279 43.3788 38.3583C44.0374 38.4262 44.5024 38.5395 44.5024 38.6188C44.5024 38.732 44.2505 38.7434 43.495 38.6867C42.9332 38.6301 42.0809 38.4829 41.5966 38.3469C41.1122 38.1997 40.7442 38.0184 40.7635 37.9391C40.8023 37.8712 40.7054 37.8372 40.5698 37.8712C40.4342 37.9052 39.9693 37.6786 39.4656 37.3615C38.7876 36.9084 38.4002 36.7498 37.7221 36.6592C37.2378 36.6025 36.4823 36.4213 36.0174 36.2627C35.5718 36.1155 35.2037 35.9569 35.2037 35.9002C35.2037 35.8549 35.6299 35.9342 36.1336 36.0701C36.6373 36.2174 37.4315 36.3533 37.9158 36.376C38.6132 36.41 38.7295 36.3873 38.4583 36.2854C38.2645 36.2174 38.0321 35.9569 37.9158 35.7077C37.7996 35.4132 37.7996 34.9714 37.9352 34.4617C38.0321 34.0312 38.3614 33.3629 38.6714 32.9891C38.9813 32.6153 39.5044 32.1283 39.8337 31.9131C40.163 31.6978 40.4342 31.5619 40.4536 31.6299C40.4536 31.6978 40.5505 31.6412 40.6667 31.5166C40.8023 31.3807 40.9185 31.3467 40.9573 31.426Z" fill="#9FCC2E"/>
<path d="M45.1998 21.6053C45.1416 21.5713 44.9673 21.3561 44.7929 21.1295C44.638 20.8916 44.5605 20.6991 44.638 20.6991C44.7155 20.6991 44.8898 20.8916 45.0448 21.1295C45.1804 21.3561 45.2966 21.5713 45.2966 21.6053C45.2966 21.6392 45.2385 21.6392 45.1998 21.6053Z" fill="#9FCC2E"/>
<path d="M48.4543 30.4065C48.2412 30.4292 47.7956 30.4292 47.4857 30.4065C47.1757 30.3839 47.3501 30.3612 47.8925 30.3612C48.4155 30.3612 48.6867 30.3839 48.4543 30.4065Z" fill="#9FCC2E"/>
<path d="M50.7014 30.4065C50.3334 30.4292 49.7716 30.4292 49.4423 30.4065C49.1129 30.3839 49.4229 30.3612 50.1203 30.3612C50.8177 30.3612 51.0695 30.3839 50.7014 30.4065Z" fill="#9FCC2E"/>
<path d="M53.7041 30.5198C53.3748 30.5425 52.9099 30.5425 52.6387 30.5198C52.3674 30.4971 52.6387 30.4745 53.2198 30.4745C53.801 30.4745 54.0335 30.4971 53.7041 30.5198Z" fill="#9FCC2E"/>
<path d="M33.0534 35.028C32.666 34.7109 32.2398 34.3484 32.1236 34.2012C31.988 34.0652 31.9492 33.952 32.0073 33.952C32.0848 33.952 32.3754 34.1898 32.6854 34.4843C32.976 34.7902 33.654 35.2772 34.177 35.5831C34.9519 36.0475 34.9907 36.0928 34.4482 35.8663C34.0802 35.719 33.4603 35.3339 33.0534 35.028Z" fill="#9FCC2E"/>
<path d="M43.8244 19.4531C43.7662 19.3851 43.7856 19.2492 43.8437 19.1473V19.1359C43.9793 18.9547 43.9793 18.9547 44.1343 19.1359C44.2312 19.2492 44.2699 19.3738 44.2118 19.4191C44.1537 19.4757 44.2312 19.5664 44.3862 19.623C44.5411 19.6796 44.7155 19.8609 44.7736 20.0195C44.8898 20.2913 44.8898 20.2913 44.6574 20.0761C44.5218 19.9402 44.2312 19.8382 44.0375 19.8495C43.8244 19.8495 43.6306 19.7816 43.5919 19.7023C43.5725 19.6343 43.6306 19.5664 43.7275 19.5664C43.8437 19.5664 43.8825 19.5097 43.8244 19.4531Z" fill="#9FCC2E"/>
<path d="M41.6353 22.0697C41.5578 22.0697 41.6353 22.013 41.7903 21.9564C41.9453 21.8998 42.0809 21.8431 42.0809 21.8431V22.0923C42.0809 22.2396 41.9065 22.5001 41.6934 22.6927C41.4997 22.8739 39.9306 23.8367 38.2258 24.8109C36.5017 25.7963 34.9132 26.6232 34.6807 26.6572C34.2933 26.7025 34.2739 26.6912 34.487 26.5213C34.6032 26.4193 36.1336 25.5018 37.8771 24.4824C39.6012 23.4629 41.0154 22.5794 41.0154 22.5228C41.0154 22.4661 41.151 22.4322 41.306 22.4661C41.461 22.5001 41.6547 22.4548 41.7322 22.3755C41.8484 22.2736 41.8097 22.2736 41.5966 22.3415C41.3641 22.4322 41.3447 22.4208 41.5385 22.2622C41.6547 22.1603 41.6934 22.0697 41.6353 22.0697Z" fill="#9FCC2E"/>
<path d="M59.3027 29.5457C59.1865 29.5457 59.2639 29.4437 59.477 29.3191C59.6901 29.1945 59.9226 29.1152 59.9807 29.1492C60.0388 29.1719 59.9613 29.2851 59.8064 29.3758C59.6514 29.4777 59.4189 29.557 59.3027 29.5457Z" fill="#9FCC2E"/>
<path d="M58.3535 29.6476C58.0048 29.6476 58.0048 29.6363 58.2953 29.557C58.5084 29.5004 58.7796 29.5457 59.0315 29.6816C59.2446 29.7949 59.3995 29.9081 59.3802 29.9421C59.3414 29.9761 59.1865 29.9195 59.0315 29.8288C58.8765 29.7269 58.5665 29.6476 58.3535 29.6476Z" fill="#9FCC2E"/>
<path d="M42.2746 30.9049C42.3908 30.837 43.2045 30.6444 44.1149 30.4518C45.0254 30.2706 45.9359 30.1233 46.5365 30.1233L45.7616 30.3046L46.5365 30.4405L46.149 30.4292C45.9359 30.4179 45.626 30.4518 45.471 30.4858C45.316 30.5311 44.8123 30.6331 44.3668 30.735C43.7275 30.8596 43.5338 30.8709 43.5338 30.7577C43.5338 30.6897 43.3982 30.735 43.2432 30.8709C43.0495 31.0522 42.8558 31.1088 42.6233 31.0522C42.3521 30.9842 42.3133 31.0069 42.4489 31.1315C42.5845 31.2674 42.5652 31.2787 42.3521 31.1541C42.1713 31.0635 42.1454 30.9804 42.2746 30.9049Z" fill="#9FCC2E"/>
<path d="M33.0147 34.6203C33.1891 34.507 33.1891 34.4164 33.0341 34.2465C32.8404 34.0426 32.8404 34.0312 33.1891 34.1785C33.3828 34.2578 33.5378 34.3711 33.499 34.4277C33.4796 34.4843 33.7315 34.6996 34.0608 34.8921C34.3901 35.096 35.1069 35.4585 35.6687 35.6963C36.2111 35.9229 36.8891 36.1381 37.1991 36.1721C37.4897 36.2061 37.7609 36.274 37.819 36.342C37.8771 36.41 37.509 36.376 37.0054 36.2854C36.4823 36.1947 35.8818 36.0362 35.6493 35.9455C35.32 35.821 35.2038 35.8096 35.2038 35.9116C35.2231 36.0248 35.165 36.0248 34.9132 35.9116C34.7582 35.8323 34.6807 35.719 34.7582 35.6284C34.8615 35.5378 34.8292 35.5189 34.6613 35.5718C34.5451 35.6284 34.2933 35.6171 34.1383 35.5491C33.9833 35.4811 33.8865 35.3905 33.9446 35.3226C34.0027 35.2546 33.9639 35.1073 33.8477 34.9827C33.7315 34.8468 33.5571 34.7902 33.4215 34.8355C33.2278 34.9034 33.2278 34.8808 33.3634 34.7562C33.5184 34.6203 33.4796 34.6089 33.1697 34.6769C32.8597 34.7562 32.821 34.7449 33.0147 34.6203Z" fill="#9FCC2E"/>
<path d="M46.0134 38.4149C45.994 38.4036 46.2652 38.3356 46.6333 38.279C47.0014 38.2223 47.4276 38.177 47.5632 38.1883C47.6988 38.1997 47.815 38.2563 47.815 38.3243C47.7956 38.3922 47.4082 38.4375 46.9239 38.4375C46.4396 38.4375 46.0328 38.4262 46.0134 38.4149Z" fill="#9FCC2E"/>
<path d="M52.0575 30.5198C51.9025 30.5425 51.5926 30.5425 51.3795 30.5198C51.1664 30.4858 51.302 30.4632 51.6701 30.4632C52.0381 30.4632 52.2125 30.4858 52.0575 30.5198Z" fill="#9FCC2E"/>
<path d="M31.0775 31.9131C31.0387 32.0716 31 31.9697 31 31.6865C31 31.4033 31.0387 31.2787 31.0775 31.4033C31.1162 31.5279 31.1162 31.7545 31.0775 31.9131Z" fill="#9FCC2E"/>
<path d="M53.8979 30.4065C53.4717 30.4292 52.8711 30.4292 52.5418 30.4065C52.2125 30.3839 52.5806 30.3612 53.3167 30.3612C54.0528 30.3612 54.3241 30.3839 53.8979 30.4065Z" fill="#9FCC2E"/>
<path d="M37.4703 33.952C37.4316 34.1105 37.3928 34.0086 37.3928 33.7254C37.3928 33.4422 37.4316 33.3176 37.4703 33.4422C37.509 33.5668 37.509 33.7934 37.4703 33.952Z" fill="#9FCC2E"/>
<path d="M48.7061 29.1379C48.6674 29.3304 48.6286 29.1945 48.6286 28.8547C48.6286 28.5149 48.6674 28.3563 48.7061 28.5149C48.7449 28.6735 48.7449 28.9453 48.7061 29.1379Z" fill="#9FCC2E"/>
<path d="M49.6747 28.968C49.6166 29.0586 49.5779 28.9566 49.5779 28.7414C49.5779 28.5262 49.6166 28.4469 49.6747 28.5715C49.7135 28.6961 49.7135 28.8774 49.6747 28.968Z" fill="#9FCC2E"/>
<path d="M52.4062 32.5587C52.2318 32.5814 51.8831 32.5814 51.6313 32.5587C51.3795 32.5361 51.5344 32.5134 51.9606 32.5134C52.3868 32.5021 52.5805 32.5247 52.4062 32.5587Z" fill="#9FCC2E"/>
<path d="M48.6674 32.9099C48.5511 32.9099 48.8223 32.8419 49.2485 32.7626C49.6747 32.672 50.2752 32.6153 50.6046 32.6153C50.9726 32.6153 50.7402 32.672 50.0234 32.7626C49.3841 32.8532 48.7836 32.9212 48.6674 32.9099Z" fill="#9FCC2E"/>
<path d="M46.5945 33.2836C46.5558 33.2383 46.8464 33.1364 47.2145 33.0684C47.5825 33.0118 47.9312 32.9552 47.97 32.9438C48.0281 32.9325 47.9893 32.9778 47.8731 33.0231C47.7762 33.0798 47.4663 33.1817 47.1563 33.2497C46.8658 33.329 46.6139 33.3403 46.5945 33.2836Z" fill="#9FCC2E"/>
<path d="M44.2118 33.9746C44.3086 33.9066 44.8317 33.7254 45.3741 33.5668C45.8971 33.4082 46.3621 33.2723 46.3815 33.2723C46.4202 33.2723 46.4396 33.295 46.4396 33.329C46.4396 33.3629 45.8972 33.5442 45.2191 33.7367C44.5605 33.9293 44.0955 34.0312 44.2118 33.9746Z" fill="#9FCC2E"/>
<path d="M41.0735 35.3452C41.151 35.2659 41.7128 34.9714 42.3133 34.6882C42.9332 34.405 43.4563 34.1785 43.4756 34.1785C43.5144 34.1785 43.5338 34.1898 43.5338 34.2125C43.5338 34.2238 42.9526 34.5183 42.2358 34.8581C41.519 35.198 40.996 35.4132 41.0735 35.3452Z" fill="#9FCC2E"/>
<path d="M53.3167 32.5927C53.1617 32.5927 53.0648 32.5474 53.123 32.4794C53.2005 32.4115 53.3554 32.3661 53.4717 32.3661C53.6073 32.3661 53.7041 32.4115 53.6654 32.4794C53.6266 32.5474 53.4717 32.5927 53.3167 32.5927Z" fill="#9FCC2E"/>
<path d="M95.1731 28.792V36.136H103.813V39.484H95.1731V47.152H104.893V50.5H91.0691V25.444H104.893V28.792H95.1731ZM108.58 40.564C108.58 38.524 108.988 36.736 109.804 35.2C110.644 33.64 111.796 32.44 113.26 31.6C114.724 30.76 116.404 30.34 118.3 30.34C120.7 30.34 122.68 30.916 124.24 32.068C125.824 33.196 126.892 34.816 127.444 36.928H123.016C122.656 35.944 122.08 35.176 121.288 34.624C120.496 34.072 119.5 33.796 118.3 33.796C116.62 33.796 115.276 34.396 114.268 35.596C113.284 36.772 112.792 38.428 112.792 40.564C112.792 42.7 113.284 44.368 114.268 45.568C115.276 46.768 116.62 47.368 118.3 47.368C120.676 47.368 122.248 46.324 123.016 44.236H127.444C126.868 46.252 125.788 47.86 124.204 49.06C122.62 50.236 120.652 50.824 118.3 50.824C116.404 50.824 114.724 50.404 113.26 49.564C111.796 48.7 110.644 47.5 109.804 45.964C108.988 44.404 108.58 42.604 108.58 40.564ZM140.138 50.824C138.266 50.824 136.574 50.404 135.062 49.564C133.55 48.7 132.362 47.5 131.498 45.964C130.634 44.404 130.202 42.604 130.202 40.564C130.202 38.548 130.646 36.76 131.534 35.2C132.422 33.64 133.634 32.44 135.17 31.6C136.706 30.76 138.422 30.34 140.318 30.34C142.214 30.34 143.93 30.76 145.466 31.6C147.002 32.44 148.214 33.64 149.102 35.2C149.99 36.76 150.434 38.548 150.434 40.564C150.434 42.58 149.978 44.368 149.066 45.928C148.154 47.488 146.906 48.7 145.322 49.564C143.762 50.404 142.034 50.824 140.138 50.824ZM140.138 47.26C141.194 47.26 142.178 47.008 143.09 46.504C144.026 46 144.782 45.244 145.358 44.236C145.934 43.228 146.222 42.004 146.222 40.564C146.222 39.124 145.946 37.912 145.394 36.928C144.842 35.92 144.11 35.164 143.198 34.66C142.286 34.156 141.302 33.904 140.246 33.904C139.19 33.904 138.206 34.156 137.294 34.66C136.406 35.164 135.698 35.92 135.17 36.928C134.642 37.912 134.378 39.124 134.378 40.564C134.378 42.7 134.918 44.356 135.998 45.532C137.102 46.684 138.482 47.26 140.138 47.26ZM169.215 25.48V28.828H158.595V36.208H166.875V39.556H158.595V50.5H154.491V25.48H169.215ZM181.622 50.824C179.75 50.824 178.058 50.404 176.546 49.564C175.034 48.7 173.846 47.5 172.982 45.964C172.118 44.404 171.686 42.604 171.686 40.564C171.686 38.548 172.13 36.76 173.018 35.2C173.906 33.64 175.118 32.44 176.654 31.6C178.19 30.76 179.906 30.34 181.802 30.34C183.698 30.34 185.414 30.76 186.95 31.6C188.486 32.44 189.698 33.64 190.586 35.2C191.474 36.76 191.918 38.548 191.918 40.564C191.918 42.58 191.462 44.368 190.55 45.928C189.638 47.488 188.39 48.7 186.806 49.564C185.246 50.404 183.518 50.824 181.622 50.824ZM181.622 47.26C182.678 47.26 183.662 47.008 184.574 46.504C185.51 46 186.266 45.244 186.842 44.236C187.418 43.228 187.706 42.004 187.706 40.564C187.706 39.124 187.43 37.912 186.878 36.928C186.326 35.92 185.594 35.164 184.682 34.66C183.77 34.156 182.786 33.904 181.73 33.904C180.674 33.904 179.69 34.156 178.778 34.66C177.89 35.164 177.182 35.92 176.654 36.928C176.126 37.912 175.862 39.124 175.862 40.564C175.862 42.7 176.402 44.356 177.482 45.532C178.586 46.684 179.966 47.26 181.622 47.26ZM204.579 50.824C202.707 50.824 201.015 50.404 199.503 49.564C197.991 48.7 196.803 47.5 195.939 45.964C195.075 44.404 194.643 42.604 194.643 40.564C194.643 38.548 195.087 36.76 195.975 35.2C196.863 33.64 198.075 32.44 199.611 31.6C201.147 30.76 202.863 30.34 204.759 30.34C206.655 30.34 208.371 30.76 209.907 31.6C211.443 32.44 212.655 33.64 213.543 35.2C214.431 36.76 214.875 38.548 214.875 40.564C214.875 42.58 214.419 44.368 213.507 45.928C212.595 47.488 211.347 48.7 209.763 49.564C208.203 50.404 206.475 50.824 204.579 50.824ZM204.579 47.26C205.635 47.26 206.619 47.008 207.531 46.504C208.467 46 209.223 45.244 209.799 44.236C210.375 43.228 210.663 42.004 210.663 40.564C210.663 39.124 210.387 37.912 209.835 36.928C209.283 35.92 208.551 35.164 207.639 34.66C206.727 34.156 205.743 33.904 204.687 33.904C203.631 33.904 202.647 34.156 201.735 34.66C200.847 35.164 200.139 35.92 199.611 36.928C199.083 37.912 198.819 39.124 198.819 40.564C198.819 42.7 199.359 44.356 200.439 45.532C201.543 46.684 202.923 47.26 204.579 47.26ZM217.564 40.492C217.564 38.5 217.972 36.736 218.788 35.2C219.628 33.664 220.756 32.476 222.172 31.636C223.612 30.772 225.208 30.34 226.96 30.34C228.256 30.34 229.528 30.628 230.776 31.204C232.048 31.756 233.056 32.5 233.8 33.436V23.86H237.94V50.5H233.8V47.512C233.128 48.472 232.192 49.264 230.992 49.888C229.816 50.512 228.46 50.824 226.924 50.824C225.196 50.824 223.612 50.392 222.172 49.528C220.756 48.64 219.628 47.416 218.788 45.856C217.972 44.272 217.564 42.484 217.564 40.492ZM233.8 40.564C233.8 39.196 233.512 38.008 232.936 37C232.384 35.992 231.652 35.224 230.74 34.696C229.828 34.168 228.844 33.904 227.788 33.904C226.732 33.904 225.748 34.168 224.836 34.696C223.924 35.2 223.18 35.956 222.604 36.964C222.052 37.948 221.776 39.124 221.776 40.492C221.776 41.86 222.052 43.06 222.604 44.092C223.18 45.124 223.924 45.916 224.836 46.468C225.772 46.996 226.756 47.26 227.788 47.26C228.844 47.26 229.828 46.996 230.74 46.468C231.652 45.94 232.384 45.172 232.936 44.164C233.512 43.132 233.8 41.932 233.8 40.564Z" fill="#9FCC2E"/>
</svg>
